<?xml version="1.0" encoding="UTF-8" standalone="no"?>
<!DOCTYPE svg PUBLIC "-//W3C//DTD SVG 1.1//EN"
 "http://www.w3.org/Graphics/SVG/1.1/DTD/svg11.dtd">
<!-- Generated by graphviz version 13.1.2 (20250808.2320)
 -->
<!-- Pages: 1 -->
<svg width="116pt" height="91pt"
 viewBox="0.00 0.00 116.00 91.00" xmlns="http://www.w3.org/2000/svg" xmlns:xlink="http://www.w3.org/1999/xlink">
<g id="graph0" class="graph" transform="scale(1 1) rotate(0) translate(4 87.49)">
<polygon fill="white" stroke="none" points="-4,4 -4,-87.49 111.5,-87.49 111.5,4 -4,4"/>
<!-- &#45;1 -->
<g id="node1" class="node">
<title>&#45;1</title>
<polygon fill="lightgray" stroke="black" points="23.5,-83.49 0,-83.49 0,-64.99 23.5,-64.99 23.5,-83.49"/>
<text xml:space="preserve" text-anchor="middle" x="11.75" y="-70.94" font-family="Times New Roman,serif" font-size="9.00">&#45;1</text>
</g>
<!-- 0 -->
<g id="node4" class="node">
<title>0</title>
<ellipse fill="lightblue" stroke="black" cx="53.75" cy="-14.5" rx="14.5" ry="14.5"/>
<text xml:space="preserve" text-anchor="middle" x="53.75" y="-11.2" font-family="Times New Roman,serif" font-size="9.00">0</text>
</g>
<!-- &#45;1&#45;&gt;0 -->
<g id="edge1" class="edge">
<title>&#45;1&#45;&gt;0</title>
<path fill="none" stroke="green" stroke-width="0.12" d="M17.95,-64.72C23.65,-56.88 32.32,-44.96 39.7,-34.81"/>
<polygon fill="green" stroke="green" stroke-width="0.12" points="42.35,-37.12 45.4,-26.98 36.69,-33.01 42.35,-37.12"/>
</g>
<!-- &#45;2 -->
<g id="node2" class="node">
<title>&#45;2</title>
<polygon fill="lightgray" stroke="black" points="65.5,-83.49 42,-83.49 42,-64.99 65.5,-64.99 65.5,-83.49"/>
<text xml:space="preserve" text-anchor="middle" x="53.75" y="-70.94" font-family="Times New Roman,serif" font-size="9.00">&#45;2</text>
</g>
<!-- &#45;2&#45;&gt;0 -->
<g id="edge2" class="edge">
<title>&#45;2&#45;&gt;0</title>
<path fill="none" stroke="red" stroke-width="0.16" d="M53.75,-64.72C53.75,-58.05 53.75,-48.42 53.75,-39.45"/>
<polygon fill="red" stroke="red" stroke-width="0.16" points="57.25,-39.67 53.75,-29.67 50.25,-39.67 57.25,-39.67"/>
</g>
<!-- &#45;3 -->
<g id="node3" class="node">
<title>&#45;3</title>
<polygon fill="lightgray" stroke="black" points="107.5,-83.49 84,-83.49 84,-64.99 107.5,-64.99 107.5,-83.49"/>
<text xml:space="preserve" text-anchor="middle" x="95.75" y="-70.94" font-family="Times New Roman,serif" font-size="9.00">&#45;3</text>
</g>
<!-- &#45;3&#45;&gt;0 -->
<g id="edge3" class="edge">
<title>&#45;3&#45;&gt;0</title>
<path fill="none" stroke="green" stroke-width="0.68" d="M89.55,-64.72C84.02,-57.11 75.7,-45.67 68.47,-35.73"/>
<polygon fill="green" stroke="green" stroke-width="0.68" points="71.31,-33.69 62.6,-27.66 65.65,-37.81 71.31,-33.69"/>
</g>
</g>
</svg>
